<svg xmlns="http://www.w3.org/2000/svg" xmlns:freecad="http://www.freecadweb.org/wiki/index.php?title=Svg_Namespace" width="594mm" height="420mm" viewBox="0 0 594 420"><rect width="594" height="420" fill="white" /><rect x="12" y="12" width="570" height="396" stroke="#111" stroke-width="0.45" fill="none" /><text x="22" y="27" font-size="5" font-family="SimSun, Microsoft YaHei, sans-serif" text-anchor="start" fill="#111111">ECHOES OF RUIN / 管理设施单层空间验证</text><text x="22" y="37" font-size="5" font-family="SimSun, Microsoft YaHei, sans-serif" text-anchor="start" fill="#111111">管理设施单层 / 外包平面与功能关系</text><text x="22" y="47" font-size="3" font-family="SimSun, Microsoft YaHei, sans-serif" text-anchor="start" fill="#111111">单位 m；实线尺寸为已确认基准。虚线、关系符号与历史草图参考均不可量取定位。</text><line x1="12" y1="374" x2="582" y2="374" stroke="#111" stroke-width="0.4" fill="none" /><line x1="360" y1="374" x2="360" y2="408" stroke="#111" stroke-width="0.35" fill="none" /><line x1="475" y1="374" x2="475" y2="408" stroke="#111" stroke-width="0.35" fill="none" /><line x1="533" y1="374" x2="533" y2="408" stroke="#111" stroke-width="0.35" fill="none" /><text x="20" y="384" font-size="3" font-family="SimSun, Microsoft YaHei, sans-serif" text-anchor="start" fill="#111111">依据：CRYO_FACILITY_LAYOUT.md §§4-5；GitHub main d67e58a89410</text><text x="20" y="393" font-size="3" font-family="SimSun, Microsoft YaHei, sans-serif" text-anchor="start" fill="#111111">状态：v2 单层验证；图页/导出为参数快照；位置/构造/吞吐 TBD。</text><text x="368" y="384" font-size="3" font-family="SimSun, Microsoft YaHei, sans-serif" text-anchor="start" fill="#111111">比例 / A2 100%</text><text x="368" y="397" font-size="3.2" font-family="SimSun, Microsoft YaHei, sans-serif" text-anchor="start" fill="#111111">主图 1:200；关系 NTS</text><text x="483" y="384" font-size="3" font-family="SimSun, Microsoft YaHei, sans-serif" text-anchor="start" fill="#111111">图号</text><text x="483" y="398" font-size="5" font-family="SimSun, Microsoft YaHei, sans-serif" text-anchor="start" fill="#111111">A201</text><text x="541" y="384" font-size="3" font-family="SimSun, Microsoft YaHei, sans-serif" text-anchor="start" fill="#111111">版本</text><text x="541" y="398" font-size="5" font-family="SimSun, Microsoft YaHei, sans-serif" text-anchor="start" fill="#111111">v2</text><rect x="65" y="100" width="325.0" height="225.0" stroke="#111" stroke-width="0.5" fill="none" /><line x1="65" y1="92" x2="390.0" y2="92" stroke="#111" stroke-width="0.25" fill="none" /><line x1="63.9" y1="93.1" x2="66.1" y2="90.9" stroke="#111" stroke-width="0.3" fill="none" /><line x1="65" y1="92" x2="65" y2="100" stroke="#111" stroke-width="0.18" fill="none" /><line x1="388.9" y1="93.1" x2="391.1" y2="90.9" stroke="#111" stroke-width="0.3" fill="none" /><line x1="390.0" y1="92" x2="390.0" y2="100" stroke="#111" stroke-width="0.18" fill="none" /><text x="227.5" y="89.8" font-size="3.2" font-family="SimSun, Microsoft YaHei, sans-serif" text-anchor="middle" fill="#111111">≈ 65 m</text><line x1="57" y1="100" x2="57" y2="325.0" stroke="#111" stroke-width="0.25" fill="none" /><line x1="55.9" y1="101.1" x2="58.1" y2="98.9" stroke="#111" stroke-width="0.3" fill="none" /><line x1="57" y1="100" x2="65" y2="100" stroke="#111" stroke-width="0.18" fill="none" /><line x1="55.9" y1="326.1" x2="58.1" y2="323.9" stroke="#111" stroke-width="0.3" fill="none" /><line x1="57" y1="325.0" x2="65" y2="325.0" stroke="#111" stroke-width="0.18" fill="none" /><text x="54" y="212.5" font-size="3.2" font-family="SimSun, Microsoft YaHei, sans-serif" text-anchor="end" fill="#111111">≈ 45 m</text><text x="227.5" y="350" font-size="3.2" font-family="SimSun, Microsoft YaHei, sans-serif" text-anchor="middle" fill="#111111">前侧：A-J 十入口；后侧：园区 / 三出口</text><text x="227.5" y="75" font-size="3.3" font-family="SimSun, Microsoft YaHei, sans-serif" text-anchor="middle" fill="#111111">+Y 后侧 / 园区</text><text x="227.5" y="335" font-size="3.1" font-family="SimSun, Microsoft YaHei, sans-serif" text-anchor="middle" fill="#111111">+X 左→右；O=(0,0) 外包左前角</text><rect x="78.0" y="296" width="8" height="4" stroke="#111" stroke-width="0.28" fill="none" stroke-dasharray="2 1.2" /><text x="82.0" y="292" font-size="3.5" font-family="SimSun, Microsoft YaHei, sans-serif" text-anchor="middle" fill="#111111">A</text><line x1="82.0" y1="288" x2="82.0" y2="275" stroke="#111" stroke-width="0.35" fill="none" /><line x1="82.0" y1="275" x2="82.8562969514251" y2="276.91748677465586" stroke="#111" stroke-width="0.35" fill="none" /><line x1="82.0" y1="275" x2="81.1437030485749" y2="276.91748677465586" stroke="#111" stroke-width="0.35" fill="none" /><rect x="110.3" y="296" width="8" height="4" stroke="#111" stroke-width="0.28" fill="none" stroke-dasharray="2 1.2" /><text x="114.3" y="292" font-size="3.5" font-family="SimSun, Microsoft YaHei, sans-serif" text-anchor="middle" fill="#111111">B</text><line x1="114.3" y1="288" x2="114.3" y2="275" stroke="#111" stroke-width="0.35" fill="none" /><line x1="114.3" y1="275" x2="115.15629695142509" y2="276.91748677465586" stroke="#111" stroke-width="0.35" fill="none" /><line x1="114.3" y1="275" x2="113.4437030485749" y2="276.91748677465586" stroke="#111" stroke-width="0.35" fill="none" /><rect x="142.6" y="296" width="8" height="4" stroke="#111" stroke-width="0.28" fill="none" stroke-dasharray="2 1.2" /><text x="146.6" y="292" font-size="3.5" font-family="SimSun, Microsoft YaHei, sans-serif" text-anchor="middle" fill="#111111">C</text><line x1="146.6" y1="288" x2="146.6" y2="275" stroke="#111" stroke-width="0.35" fill="none" /><line x1="146.6" y1="275" x2="147.4562969514251" y2="276.91748677465586" stroke="#111" stroke-width="0.35" fill="none" /><line x1="146.6" y1="275" x2="145.7437030485749" y2="276.91748677465586" stroke="#111" stroke-width="0.35" fill="none" /><rect x="174.89999999999998" y="296" width="8" height="4" stroke="#111" stroke-width="0.28" fill="none" stroke-dasharray="2 1.2" /><text x="178.89999999999998" y="292" font-size="3.5" font-family="SimSun, Microsoft YaHei, sans-serif" text-anchor="middle" fill="#111111">D</text><line x1="178.89999999999998" y1="288" x2="178.89999999999998" y2="275" stroke="#111" stroke-width="0.35" fill="none" /><line x1="178.89999999999998" y1="275" x2="179.75629695142507" y2="276.91748677465586" stroke="#111" stroke-width="0.35" fill="none" /><line x1="178.89999999999998" y1="275" x2="178.04370304857488" y2="276.91748677465586" stroke="#111" stroke-width="0.35" fill="none" /><rect x="207.2" y="296" width="8" height="4" stroke="#111" stroke-width="0.28" fill="none" stroke-dasharray="2 1.2" /><text x="211.2" y="292" font-size="3.5" font-family="SimSun, Microsoft YaHei, sans-serif" text-anchor="middle" fill="#111111">E</text><line x1="211.2" y1="288" x2="211.2" y2="275" stroke="#111" stroke-width="0.35" fill="none" /><line x1="211.2" y1="275" x2="212.05629695142508" y2="276.91748677465586" stroke="#111" stroke-width="0.35" fill="none" /><line x1="211.2" y1="275" x2="210.3437030485749" y2="276.91748677465586" stroke="#111" stroke-width="0.35" fill="none" /><rect x="239.5" y="296" width="8" height="4" stroke="#111" stroke-width="0.28" fill="none" stroke-dasharray="2 1.2" /><text x="243.5" y="292" font-size="3.5" font-family="SimSun, Microsoft YaHei, sans-serif" text-anchor="middle" fill="#111111">F</text><line x1="243.5" y1="288" x2="243.5" y2="275" stroke="#111" stroke-width="0.35" fill="none" /><line x1="243.5" y1="275" x2="244.3562969514251" y2="276.91748677465586" stroke="#111" stroke-width="0.35" fill="none" /><line x1="243.5" y1="275" x2="242.6437030485749" y2="276.91748677465586" stroke="#111" stroke-width="0.35" fill="none" /><rect x="271.79999999999995" y="296" width="8" height="4" stroke="#111" stroke-width="0.28" fill="none" stroke-dasharray="2 1.2" /><text x="275.79999999999995" y="292" font-size="3.5" font-family="SimSun, Microsoft YaHei, sans-serif" text-anchor="middle" fill="#111111">G</text><line x1="275.79999999999995" y1="288" x2="275.79999999999995" y2="275" stroke="#111" stroke-width="0.35" fill="none" /><line x1="275.79999999999995" y1="275" x2="276.6562969514251" y2="276.91748677465586" stroke="#111" stroke-width="0.35" fill="none" /><line x1="275.79999999999995" y1="275" x2="274.94370304857483" y2="276.91748677465586" stroke="#111" stroke-width="0.35" fill="none" /><rect x="304.09999999999997" y="296" width="8" height="4" stroke="#111" stroke-width="0.28" fill="none" stroke-dasharray="2 1.2" /><text x="308.09999999999997" y="292" font-size="3.5" font-family="SimSun, Microsoft YaHei, sans-serif" text-anchor="middle" fill="#111111">H</text><line x1="308.09999999999997" y1="288" x2="308.09999999999997" y2="275" stroke="#111" stroke-width="0.35" fill="none" /><line x1="308.09999999999997" y1="275" x2="308.9562969514251" y2="276.91748677465586" stroke="#111" stroke-width="0.35" fill="none" /><line x1="308.09999999999997" y1="275" x2="307.24370304857484" y2="276.91748677465586" stroke="#111" stroke-width="0.35" fill="none" /><rect x="336.4" y="296" width="8" height="4" stroke="#111" stroke-width="0.28" fill="none" stroke-dasharray="2 1.2" /><text x="340.4" y="292" font-size="3.5" font-family="SimSun, Microsoft YaHei, sans-serif" text-anchor="middle" fill="#111111">I</text><line x1="340.4" y1="288" x2="340.4" y2="275" stroke="#111" stroke-width="0.35" fill="none" /><line x1="340.4" y1="275" x2="341.2562969514251" y2="276.91748677465586" stroke="#111" stroke-width="0.35" fill="none" /><line x1="340.4" y1="275" x2="339.54370304857486" y2="276.91748677465586" stroke="#111" stroke-width="0.35" fill="none" /><rect x="368.7" y="296" width="8" height="4" stroke="#111" stroke-width="0.28" fill="none" stroke-dasharray="2 1.2" /><text x="372.7" y="292" font-size="3.5" font-family="SimSun, Microsoft YaHei, sans-serif" text-anchor="middle" fill="#111111">J</text><line x1="372.7" y1="288" x2="372.7" y2="275" stroke="#111" stroke-width="0.35" fill="none" /><line x1="372.7" y1="275" x2="373.5562969514251" y2="276.91748677465586" stroke="#111" stroke-width="0.35" fill="none" /><line x1="372.7" y1="275" x2="371.84370304857487" y2="276.91748677465586" stroke="#111" stroke-width="0.35" fill="none" /><text x="227.5" y="311" font-size="3.1" font-family="SimSun, Microsoft YaHei, sans-serif" text-anchor="middle" fill="#111111">正面：十个入口组 → 自动芯片认证（闸机/净宽/定位 TBD）</text><line x1="77" y1="267" x2="378" y2="267" stroke="#111" stroke-width="0.4" fill="none" stroke-dasharray="2 1.2" /><text x="227.5" y="260" font-size="3.1" font-family="SimSun, Microsoft YaHei, sans-serif" text-anchor="middle" fill="#111111">自动认证区 / 深度、设备、异常支路 TBD</text><rect x="172" y="171" width="111" height="62" stroke="#111" stroke-width="0.35" fill="none" stroke-dasharray="2 1.2" /><text x="227.5" y="183" font-size="3.8" font-family="SimSun, Microsoft YaHei, sans-serif" text-anchor="middle" fill="#111111">工作人员 / 异常处理区</text><text x="227.5" y="192" font-size="3.1" font-family="SimSun, Microsoft YaHei, sans-serif" text-anchor="middle" fill="#111111">18×12m 独立详图见 A202</text><text x="227.5" y="225" font-size="3.0" font-family="SimSun, Microsoft YaHei, sans-serif" text-anchor="middle" fill="#111111">精确 XY 与边界控制面 TBD</text><rect x="214" y="197" width="27" height="11" stroke="#111" stroke-width="0.3" fill="none" stroke-dasharray="2 1.2" /><text x="227.5" y="204" font-size="2.8" font-family="SimSun, Microsoft YaHei, sans-serif" text-anchor="middle" fill="#111111">内部厕所 / NTS</text><rect x="102" y="201" width="36" height="17" stroke="#111" stroke-width="0.3" fill="none" stroke-dasharray="2 1.2" /><text x="120" y="211" font-size="2.8" font-family="SimSun, Microsoft YaHei, sans-serif" text-anchor="middle" fill="#111111">公共厕所 左 / NTS</text><rect x="317" y="201" width="36" height="17" stroke="#111" stroke-width="0.3" fill="none" stroke-dasharray="2 1.2" /><text x="335" y="211" font-size="2.8" font-family="SimSun, Microsoft YaHei, sans-serif" text-anchor="middle" fill="#111111">公共厕所 右 / NTS</text><rect x="108" y="180" width="24" height="2" stroke="#111" stroke-width="0.28" fill="none" stroke-dasharray="2 1.2" /><text x="120" y="176" font-size="2.8" font-family="SimSun, Microsoft YaHei, sans-serif" text-anchor="middle" fill="#111111">地图/导视 NTS</text><rect x="323" y="180" width="24" height="2" stroke="#111" stroke-width="0.28" fill="none" stroke-dasharray="2 1.2" /><text x="335" y="176" font-size="2.8" font-family="SimSun, Microsoft YaHei, sans-serif" text-anchor="middle" fill="#111111">地图/导视 NTS</text><text x="227.5" y="247" font-size="3.6" font-family="SimSun, Microsoft YaHei, sans-serif" text-anchor="middle" fill="#111111">共享汇流大厅 / 边界与主通道净宽 TBD</text><rect x="120" y="145" width="20" height="4" stroke="#111" stroke-width="0.3" fill="none" stroke-dasharray="2 1.2" /><text x="130" y="160" font-size="2.8" font-family="SimSun, Microsoft YaHei, sans-serif" text-anchor="middle" fill="#111111">后出口 左 / TBD</text><line x1="130" y1="168" x2="130" y2="153" stroke="#111" stroke-width="0.35" fill="none" /><line x1="130" y1="153" x2="130.8562969514251" y2="154.91748677465586" stroke="#111" stroke-width="0.35" fill="none" /><line x1="130" y1="153" x2="129.1437030485749" y2="154.91748677465586" stroke="#111" stroke-width="0.35" fill="none" /><rect x="217.5" y="145" width="20" height="4" stroke="#111" stroke-width="0.3" fill="none" stroke-dasharray="2 1.2" /><text x="227.5" y="160" font-size="2.8" font-family="SimSun, Microsoft YaHei, sans-serif" text-anchor="middle" fill="#111111">后出口 中 / TBD</text><line x1="227.5" y1="168" x2="227.5" y2="153" stroke="#111" stroke-width="0.35" fill="none" /><line x1="227.5" y1="153" x2="228.3562969514251" y2="154.91748677465586" stroke="#111" stroke-width="0.35" fill="none" /><line x1="227.5" y1="153" x2="226.6437030485749" y2="154.91748677465586" stroke="#111" stroke-width="0.35" fill="none" /><rect x="315" y="145" width="20" height="4" stroke="#111" stroke-width="0.3" fill="none" stroke-dasharray="2 1.2" /><text x="325" y="160" font-size="2.8" font-family="SimSun, Microsoft YaHei, sans-serif" text-anchor="middle" fill="#111111">后出口 右 / TBD</text><line x1="325" y1="168" x2="325" y2="153" stroke="#111" stroke-width="0.35" fill="none" /><line x1="325" y1="153" x2="325.8562969514251" y2="154.91748677465586" stroke="#111" stroke-width="0.35" fill="none" /><line x1="325" y1="153" x2="324.1437030485749" y2="154.91748677465586" stroke="#111" stroke-width="0.35" fill="none" /><text x="404" y="88" font-size="3.2" font-family="SimSun, Microsoft YaHei, sans-serif" text-anchor="start" fill="#111111">运营关系 / NTS</text><text x="404" y="95" font-size="3.2" font-family="SimSun, Microsoft YaHei, sans-serif" text-anchor="start" fill="#111111">入口组认证后进入共享大厅。</text><text x="404" y="102" font-size="3.2" font-family="SimSun, Microsoft YaHei, sans-serif" text-anchor="start" fill="#111111">十条流线不再强制隔离。</text><text x="404" y="109" font-size="3.2" font-family="SimSun, Microsoft YaHei, sans-serif" text-anchor="start" fill="#111111">后侧左/中/右出口不固定对应楼栋。</text><text x="404" y="116" font-size="3.2" font-family="SimSun, Microsoft YaHei, sans-serif" text-anchor="start" fill="#111111">认证异常 → 工作人员处理区。</text><text x="404" y="123" font-size="3.2" font-family="SimSun, Microsoft YaHei, sans-serif" text-anchor="start" fill="#111111">两侧公共厕所不得侵占主流线。</text><text x="404" y="130" font-size="3.2" font-family="SimSun, Microsoft YaHei, sans-serif" text-anchor="start" fill="#111111">所有关系符号不代表墙、门位或净尺寸。</text><text x="404" y="211" font-size="3.2" font-family="SimSun, Microsoft YaHei, sans-serif" text-anchor="start" fill="#111111">历史草图门宽仅供比较：</text><text x="404" y="218" font-size="3.2" font-family="SimSun, Microsoft YaHei, sans-serif" text-anchor="start" fill="#111111">正面 A-J：每处 2.5 m</text><text x="404" y="225" font-size="3.2" font-family="SimSun, Microsoft YaHei, sans-serif" text-anchor="start" fill="#111111">后侧 左/中/右：6 / 8 / 6 m</text><text x="404" y="232" font-size="3.2" font-family="SimSun, Microsoft YaHei, sans-serif" text-anchor="start" fill="#111111">实际入口组/出口净宽 TBD。</text><text x="404" y="239" font-size="3.2" font-family="SimSun, Microsoft YaHei, sans-serif" text-anchor="start" fill="#111111">没有客流、服务率和净宽输入，</text><text x="404" y="246" font-size="3.2" font-family="SimSun, Microsoft YaHei, sans-serif" text-anchor="start" fill="#111111">本页不做吞吐结论。</text></svg>